<?xml version="1.0" encoding="UTF-8" standalone="no"?>
<!-- Created with Inkscape (http://www.inkscape.org/) -->

<svg
   width="35.44598mm"
   height="7.1824751mm"
   viewBox="0 0 35.44598 7.1824751"
   version="1.1"
   id="svg5"
   xml:space="preserve"
   inkscape:version="1.2.2 (732a01da63, 2022-12-09)"
   sodipodi:docname="tagozaur4.svg"
   xmlns:inkscape="http://www.inkscape.org/namespaces/inkscape"
   xmlns:sodipodi="http://sodipodi.sourceforge.net/DTD/sodipodi-0.dtd"
   xmlns="http://www.w3.org/2000/svg"
   xmlns:svg="http://www.w3.org/2000/svg"><sodipodi:namedview
     id="namedview7"
     pagecolor="#ffffff"
     bordercolor="#666666"
     borderopacity="1.0"
     inkscape:showpageshadow="2"
     inkscape:pageopacity="0.0"
     inkscape:pagecheckerboard="0"
     inkscape:deskcolor="#d1d1d1"
     inkscape:document-units="mm"
     showgrid="false"
     inkscape:zoom="2.8364759"
     inkscape:cx="272.16872"
     inkscape:cy="121.80608"
     inkscape:window-width="1920"
     inkscape:window-height="991"
     inkscape:window-x="-9"
     inkscape:window-y="-9"
     inkscape:window-maximized="1"
     inkscape:current-layer="layer1" /><defs
     id="defs2"><filter
       id="editing-extrude-glow"
       x="-0.15095977"
       y="-0.76483518"
       width="1.3019195"
       height="2.5296705"><feFlood
         flood-color="none"
         result="flood-1"
         id="feFlood58" /><feMorphology
         operator="erode"
         radius="1"
         in="SourceAlpha"
         result="erode"
         id="feMorphology60" /><feComposite
         operator="in"
         in="flood-1"
         in2="erode"
         result="comp1"
         id="feComposite62" /><feConvolveMatrix
         order="0,0"
         divisor="1"
         in="comp1"
         result="convolve"
         kernelMatrix=""
         id="feConvolveMatrix64" /><feOffset
         dx="0"
         dy="0"
         in="convolve"
         result="extrude"
         id="feOffset66" /><feComposite
         operator="in"
         in="flood-1"
         in2="extrude"
         result="comp-extrude"
         id="feComposite68" /><feFlood
         flood-color="none"
         result="flood-2"
         id="feFlood70" /><feComposite
         operator="in"
         in="flood-2"
         in2="SourceAlpha"
         result="comp2"
         id="feComposite72" /><feMorphology
         operator="dilate"
         radius="1"
         in="comp2"
         result="dilate"
         id="feMorphology74" /><feOffset
         dx="0"
         dy="0"
         in="dilate"
         result="offset"
         id="feOffset76" /><feGaussianBlur
         in="offset"
         stdDeviation="5.8"
         result="blur"
         id="feGaussianBlur78" /><feComponentTransfer
         in="blur"
         result="shadow"
         id="feComponentTransfer82"><feFuncA
           type="linear"
           slope="0.8"
           intercept="-0.2"
           id="feFuncA80" /></feComponentTransfer><feMerge
         id="feMerge90"><feMergeNode
           in="shadow"
           id="feMergeNode84" /><feMergeNode
           in="comp-extrude"
           id="feMergeNode86" /><feMergeNode
           in="SourceGraphic"
           id="feMergeNode88" /></feMerge></filter><clipPath
       clipPathUnits="userSpaceOnUse"
       id="clipPath342"><rect
         style="fill:#0000ff;fill-rule:evenodd;stroke-width:0.999999"
         id="rect344"
         width="95.541092"
         height="21.153009"
         x="203.46339"
         y="67.565865" /></clipPath><filter
       id="editing-extrude-glow-1"
       x="-0.10781504"
       y="-0.54609653"
       width="1.2156301"
       height="2.0921931"><feFlood
         flood-color="none"
         result="flood-1"
         id="feFlood421" /><feMorphology
         operator="erode"
         radius="1"
         in="SourceAlpha"
         result="erode"
         id="feMorphology423" /><feComposite
         operator="in"
         in="flood-1"
         in2="erode"
         result="comp1"
         id="feComposite425" /><feConvolveMatrix
         order="0,0"
         divisor="1"
         in="comp1"
         result="convolve"
         kernelMatrix=""
         id="feConvolveMatrix427" /><feOffset
         dx="0"
         dy="0"
         in="convolve"
         result="extrude"
         id="feOffset429" /><feComposite
         operator="in"
         in="flood-1"
         in2="extrude"
         result="comp-extrude"
         id="feComposite431" /><feFlood
         flood-color="none"
         result="flood-2"
         id="feFlood433" /><feComposite
         operator="in"
         in="flood-2"
         in2="SourceAlpha"
         result="comp2"
         id="feComposite435" /><feMorphology
         operator="dilate"
         radius="1"
         in="comp2"
         result="dilate"
         id="feMorphology437" /><feOffset
         dx="0"
         dy="0"
         in="dilate"
         result="offset"
         id="feOffset439" /><feGaussianBlur
         in="offset"
         stdDeviation="5.8"
         result="blur"
         id="feGaussianBlur441" /><feComponentTransfer
         in="blur"
         result="shadow"
         id="feComponentTransfer445"><feFuncA
           type="linear"
           slope="0.8"
           intercept="-0.2"
           id="feFuncA443" /></feComponentTransfer><feMerge
         id="feMerge453"><feMergeNode
           in="shadow"
           id="feMergeNode447" /><feMergeNode
           in="comp-extrude"
           id="feMergeNode449" /><feMergeNode
           in="SourceGraphic"
           id="feMergeNode451" /></feMerge></filter><clipPath
       clipPathUnits="userSpaceOnUse"
       id="clipPath495"><rect
         style="fill:#0000ff;fill-rule:evenodd;stroke-width:0.999999"
         id="rect497"
         width="134.67416"
         height="34.549915"
         x="182.66295"
         y="65.36779" /></clipPath><clipPath
       clipPathUnits="userSpaceOnUse"
       id="clipPath501"><rect
         style="fill:#0000ff;fill-rule:evenodd;stroke-width:0.999999"
         id="rect503"
         width="133.96906"
         height="27.146362"
         x="183.0155"
         y="65.720337" /></clipPath></defs><g
     inkscape:label="Слой 1"
     inkscape:groupmode="layer"
     id="layer1"
     transform="translate(-59.325375,-152.23116)"><path
       d="m 185.44503,70.945005 v -2.81 h 15.69 v 2.81 h -6.44 v 16.8 h -2.81 v -16.8 z m 17.09,14.11 v -3.67 0 q 0,-0.56 0.22,-1.04 v 0 0 q 0.21,-0.49 0.57,-0.86 v 0 0 q 0.36,-0.37 0.85,-0.58 v 0 0 q 0.5,-0.21 1.04,-0.21 v 0 h 6.95 v -2.82 h -8.79 v -2.69 h 8.79 v 0 q 0.56,0 1.05,0.21 v 0 0 q 0.49,0.21 0.86,0.58 v 0 0 q 0.36,0.36 0.57,0.85 v 0 0 q 0.21,0.49 0.21,1.05 v 0 11.87 h -2.69 v -2.46 0 q -0.04,0.5 -0.27,0.96 v 0 0 q -0.24,0.45 -0.6,0.78 v 0 0 q -0.36,0.34 -0.83,0.53 v 0 0 q -0.46,0.19 -0.98,0.19 v 0 h -4.27 v 0 q -0.54,0 -1.04,-0.21 v 0 0 q -0.49,-0.21 -0.85,-0.58 v 0 0 q -0.36,-0.36 -0.57,-0.85 v 0 0 q -0.22,-0.49 -0.22,-1.05 z m 2.68,-3.67 v 3.67 h 6.95 v -3.67 z m 14.13,3.11 v -8.62 0 q 0,-0.56 0.21,-1.05 v 0 0 q 0.21,-0.49 0.57,-0.85 v 0 0 q 0.37,-0.37 0.86,-0.58 v 0 0 q 0.49,-0.21 1.04,-0.21 v 0 h 4.82 v 0 q 0.54,0 1.01,0.2 v 0 0 q 0.48,0.2 0.84,0.54 v 0 0 q 0.37,0.35 0.59,0.82 v 0 0 q 0.23,0.48 0.24,1.01 v 0 -2.57 h 2.7 v 17.75 0 q 0,0.56 -0.22,1.05 v 0 0 q -0.21,0.49 -0.57,0.85 v 0 0 q -0.36,0.37 -0.86,0.58 v 0 0 q -0.49,0.21 -1.05,0.21 v 0 h -8.5 v -2.69 h 8.5 v -3.75 h -7.5 v 0 q -0.55,0 -1.04,-0.21 v 0 0 q -0.49,-0.21 -0.86,-0.58 v 0 0 q -0.36,-0.36 -0.57,-0.85 v 0 0 q -0.21,-0.49 -0.21,-1.05 z m 2.68,0 h 7.5 v -8.62 h -7.5 z m 27.27,-8.62 v 9.18 0 q 0,0.56 -0.21,1.05 v 0 0 q -0.21,0.49 -0.57,0.85 v 0 0 q -0.37,0.37 -0.85,0.58 v 0 0 q -0.49,0.21 -1.05,0.21 v 0 h -7.23 v 0 q -0.55,0 -1.04,-0.21 v 0 0 q -0.49,-0.21 -0.85,-0.58 v 0 0 q -0.37,-0.36 -0.58,-0.85 v 0 0 q -0.21,-0.49 -0.21,-1.05 v 0 -9.18 0 q 0,-0.56 0.21,-1.05 v 0 0 q 0.21,-0.49 0.58,-0.85 v 0 0 q 0.36,-0.37 0.85,-0.58 v 0 0 q 0.49,-0.21 1.04,-0.21 v 0 h 7.23 v 0 q 0.56,0 1.05,0.21 v 0 0 q 0.48,0.21 0.85,0.58 v 0 0 q 0.36,0.36 0.57,0.85 v 0 0 q 0.21,0.49 0.21,1.05 z m -2.68,0 h -7.23 v 9.18 h 7.23 z m 6.88,0 v -2.69 h 12.04 v 0.72 l -7.75,11.15 h 7.75 v 2.69 h -12.31 v -0.72 l 7.75,-11.15 z m 15.97,9.18 v -3.67 0 q 0,-0.56 0.21,-1.04 v 0 0 q 0.21,-0.49 0.57,-0.86 v 0 0 q 0.37,-0.37 0.86,-0.58 v 0 0 q 0.49,-0.21 1.04,-0.21 v 0 h 6.94 v -2.82 h -8.79 v -2.69 h 8.79 v 0 q 0.56,0 1.06,0.21 v 0 0 q 0.49,0.21 0.85,0.58 v 0 0 q 0.36,0.36 0.57,0.85 v 0 0 q 0.22,0.49 0.22,1.05 v 0 11.87 h -2.7 v -2.46 0 q -0.04,0.5 -0.27,0.96 v 0 0 q -0.23,0.45 -0.6,0.78 v 0 0 q -0.36,0.34 -0.82,0.53 v 0 0 q -0.47,0.19 -0.99,0.19 v 0 h -4.26 v 0 q -0.55,0 -1.04,-0.21 v 0 0 q -0.49,-0.21 -0.86,-0.58 v 0 0 q -0.36,-0.36 -0.57,-0.85 v 0 0 q -0.21,-0.49 -0.21,-1.05 z m 2.68,-3.67 v 3.67 h 6.94 v -3.67 z m 14.12,3.67 v -11.87 h 2.68 v 11.87 h 7.51 v -11.87 h 2.69 v 14.56 h -2.69 v -2.46 0 q -0.05,0.5 -0.28,0.96 v 0 0 q -0.23,0.45 -0.59,0.78 v 0 0 q -0.36,0.34 -0.83,0.53 v 0 0 q -0.46,0.19 -0.98,0.19 v 0 h -4.83 v 0 q -0.55,0 -1.04,-0.21 v 0 0 q -0.49,-0.21 -0.85,-0.58 v 0 0 q -0.37,-0.36 -0.58,-0.85 v 0 0 q -0.21,-0.49 -0.21,-1.05 z m 25.59,-9.18 h -5.55 v 11.87 h -2.68 v -14.56 h 2.68 v 2.57 0 q 0.03,-0.53 0.25,-1.01 v 0 0 q 0.22,-0.47 0.58,-0.82 v 0 0 q 0.36,-0.34 0.84,-0.54 v 0 0 q 0.48,-0.2 1.03,-0.2 v 0 h 2.85 v 0 q 0.56,0 1.05,0.21 v 0 0 q 0.49,0.21 0.85,0.58 v 0 0 q 0.37,0.36 0.59,0.85 v 0 0 q 0.21,0.49 0.21,1.05 v 0 2.46 h -2.7 z"
       fill="#006666"
       id="path458"
       style="filter:url(#editing-extrude-glow-1)"
       transform="matrix(0.26458333,0,0,0.26458333,10.902524,134.84265)"
       clip-path="url(#clipPath501)" /></g><style
     id="style101">text {
  font-size: 64px;
  font-family: Arial Black;
  dominant-baseline: central;
  text-anchor: middle;
}</style><style
     id="style464">text {
  font-size: 64px;
  font-family: Arial Black;
  dominant-baseline: central;
  text-anchor: middle;
}</style></svg>
